<svg width="25" height="25" viewBox="0 0 25 25" fill="none" xmlns="http://www.w3.org/2000/svg">
<path d="M8.91666 12.4167H15.9167M10.0833 16.5H14.75M7.74999 8.33337H17.0833M1.33333 12.4167C1.33333 7.19237 1.33333 4.57904 2.95616 2.95621C4.57899 1.33337 7.19116 1.33337 12.4167 1.33337C17.641 1.33337 20.2543 1.33337 21.8772 2.95621C23.5 4.57904 23.5 7.19121 23.5 12.4167C23.5 17.641 23.5 20.2544 21.8772 21.8772C20.2543 23.5 17.6422 23.5 12.4167 23.5C7.19233 23.5 4.57899 23.5 2.95616 21.8772C1.33333 20.2544 1.33333 17.6422 1.33333 12.4167Z" stroke="#333335" stroke-width="1.75" stroke-linecap="round" stroke-linejoin="round"/>
</svg>
