<svg width="24" height="24" viewBox="0 0 24 24" fill="none" xmlns="http://www.w3.org/2000/svg">
<path d="M12 5.99995V19.9999M5.98 3.28495C9.322 3.92195 11.313 5.25194 12 6.01594C12.687 5.25194 14.678 3.92195 18.02 3.28595C19.712 2.96295 20.558 2.80195 21.28 3.41995C22 4.03695 22 5.03995 22 7.04595V14.2549C22 16.0889 22 17.0059 21.537 17.5789C21.075 18.1509 20.057 18.3449 18.019 18.7329C16.204 19.0789 14.787 19.6289 13.761 20.1829C12.751 20.7279 12.247 20.9999 12 20.9999C11.753 20.9999 11.248 20.7279 10.24 20.1829C9.213 19.6299 7.796 19.0789 5.98 18.7329C3.944 18.3449 2.925 18.1509 2.463 17.5789C2 17.0059 2 16.0889 2 14.2549V7.04595C2 5.03995 2 4.03695 2.72 3.41995C3.442 2.80195 4.288 2.96295 5.98 3.28495Z" stroke="#798999" stroke-width="1.5" stroke-linecap="round" stroke-linejoin="round"/>
</svg>
