<svg width="24" height="24" viewBox="0 0 24 24" fill="none" xmlns="http://www.w3.org/2000/svg">
<path d="M18 9.357V10.5M18 9.357C17.5224 9.35883 17.0516 9.24389 16.6286 9.02219C16.2056 8.8005 15.8432 8.47876 15.573 8.085M18 9.357C18.4776 9.35883 18.9484 9.24389 19.3714 9.02219C19.7944 8.8005 20.1568 8.47876 20.427 8.085M15.573 8.085L14.5 8.785M15.573 8.085C15.2527 7.6185 15.0812 7.06589 15.0812 6.5C15.0812 5.93411 15.2527 5.3815 15.573 4.915M20.427 8.085L21.5 8.785M20.427 8.085C20.7473 7.6185 20.9188 7.06589 20.9188 6.5C20.9188 5.93411 20.7473 5.3815 20.427 4.915M18 3.643C18.4776 3.64117 18.9484 3.75611 19.3714 3.97781C19.7944 4.1995 20.1568 4.52124 20.427 4.915M18 3.643C17.5224 3.64117 17.0516 3.75611 16.6286 3.97781C16.2056 4.1995 15.8432 4.52124 15.573 4.915M18 3.643V2.5M20.427 4.915L21.5 4.214M15.573 4.915L14.5 4.215M2 6C2 4.6 2 3.9 2.272 3.365C2.51173 2.89435 2.89435 2.51173 3.365 2.272C3.9 2 4.6 2 6 2C7.4 2 8.1 2 8.635 2.272C9.10565 2.51173 9.48827 2.89435 9.728 3.365C10 3.9 10 4.6 10 6C10 7.4 10 8.1 9.728 8.635C9.48827 9.10565 9.10565 9.48827 8.635 9.728C8.1 10 7.4 10 6 10C4.6 10 3.9 10 3.365 9.728C2.89435 9.48827 2.51173 9.10565 2.272 8.635C2 8.1 2 7.4 2 6ZM2 18C2 16.6 2 15.9 2.272 15.365C2.5119 14.8947 2.89451 14.5125 3.365 14.273C3.9 14 4.6 14 6 14C7.4 14 8.1 14 8.635 14.273C9.10549 14.5125 9.4881 14.8947 9.728 15.365C10 15.9 10 16.6 10 18C10 19.4 10 20.1 9.728 20.635C9.4881 21.1053 9.10549 21.4875 8.635 21.727C8.1 22 7.4 22 6 22C4.6 22 3.9 22 3.365 21.727C2.89451 21.4875 2.5119 21.1053 2.272 20.635C2 20.1 2 19.4 2 18ZM14 18C14 16.6 14 15.9 14.273 15.365C14.5126 14.8949 14.8949 14.5126 15.365 14.273C15.9 14 16.6 14 18 14C19.4 14 20.1 14 20.635 14.273C21.1051 14.5126 21.4874 14.8949 21.727 15.365C22 15.9 22 16.6 22 18C22 19.4 22 20.1 21.727 20.635C21.4874 21.1051 21.1051 21.4874 20.635 21.727C20.1 22 19.4 22 18 22C16.6 22 15.9 22 15.365 21.727C14.8949 21.4874 14.5126 21.1051 14.273 20.635C14 20.1 14 19.4 14 18Z" stroke="#00236C" stroke-width="1.5" stroke-linecap="round" stroke-linejoin="round"/>
</svg>
