<svg width="18" height="19" viewBox="0 0 18 19" fill="none" xmlns="http://www.w3.org/2000/svg">
<path d="M13.5833 14.5235L17.3333 18.2735M15.6667 9.10681C15.6667 7.11769 14.8765 5.21003 13.47 3.80351C12.0634 2.39699 10.1558 1.60681 8.16666 1.60681C6.17753 1.60681 4.26988 2.39699 2.86336 3.80351C1.45683 5.21003 0.666656 7.11769 0.666656 9.10681C0.666656 11.0959 1.45683 13.0036 2.86336 14.4101C4.26988 15.8166 6.17753 16.6068 8.16666 16.6068C10.1558 16.6068 12.0634 15.8166 13.47 14.4101C14.8765 13.0036 15.6667 11.0959 15.6667 9.10681Z" stroke="#00236C" stroke-width="1.25" stroke-linecap="round" stroke-linejoin="round"/>
<path d="M6.91 6.19012C6.31333 6.22596 5.93333 6.32596 5.66 6.59929C5.385 6.87346 5.28583 7.25346 5.25 7.85012M9.42333 6.19012C10.02 6.22596 10.4 6.32596 10.6733 6.59929C10.9483 6.87346 11.0475 7.25346 11.0833 7.85012M11.0767 10.4585C11.0358 11.001 10.9325 11.3551 10.6742 11.6143C10.4 11.8876 10.02 11.9876 9.42333 12.0235M6.91 12.0235C6.31333 11.9876 5.93333 11.8876 5.66 11.6143C5.40083 11.3551 5.2975 11.001 5.25667 10.4576" stroke="#00236C" stroke-width="1.25" stroke-linecap="round" stroke-linejoin="round"/>
</svg>
