<svg width="24" height="24" viewBox="0 0 24 24" fill="none" xmlns="http://www.w3.org/2000/svg">
<path d="M13 22H6.58999C5.04499 22 3.81599 21.248 2.71299 20.197C0.452992 18.044 4.16299 16.324 5.57799 15.482C7.513 14.3365 9.76143 13.834 12 14.047M20.4 20.4L22 22M15.5 6.5C15.5 7.09095 15.3836 7.67611 15.1575 8.22208C14.9313 8.76804 14.5998 9.26412 14.182 9.68198C13.7641 10.0998 13.268 10.4313 12.7221 10.6575C12.1761 10.8836 11.5909 11 11 11C10.409 11 9.82388 10.8836 9.27792 10.6575C8.73195 10.4313 8.23587 10.0998 7.81801 9.68198C7.40015 9.26412 7.06868 8.76804 6.84253 8.22208C6.61639 7.67611 6.49999 7.09095 6.49999 6.5C6.49999 5.30653 6.9741 4.16193 7.81801 3.31802C8.66192 2.47411 9.80652 2 11 2C12.1935 2 13.3381 2.47411 14.182 3.31802C15.0259 4.16193 15.5 5.30653 15.5 6.5ZM21.2 17.6C21.2 16.6452 20.8207 15.7295 20.1456 15.0544C19.4704 14.3793 18.5548 14 17.6 14C16.6452 14 15.7295 14.3793 15.0544 15.0544C14.3793 15.7295 14 16.6452 14 17.6C14 18.5548 14.3793 19.4705 15.0544 20.1456C15.7295 20.8207 16.6452 21.2 17.6 21.2C18.5548 21.2 19.4704 20.8207 20.1456 20.1456C20.8207 19.4705 21.2 18.5548 21.2 17.6Z" stroke="#00236C" stroke-width="1.5" stroke-linecap="round" stroke-linejoin="round"/>
</svg>
